<?xml version="1.0" encoding="utf-8"?>
<svg xmlns="http://www.w3.org/2000/svg" width="1100" height="250" viewBox="80 300 1100 250" role="img" aria-labelledby="promxy-title">
  <title id="promxy-title">promxy</title>
  <g id="icon">
    <path fill="#E6522C" d="M302.791 320.216C318.274 319.223 324.06 329.178 334.628 339.494L370.087 374.133L390.669 393.994C399.176 402.159 402.121 402.53 404.648 414.389C402.045 423.78 396.696 427.126 390.027 433.803L371.274 452.645L319.63 504.051C312.773 510.363 303.007 510.816 295.172 506.038C290.087 502.908 286.459 497.881 285.089 492.069C283.91 486.979 284.41 481.144 286.703 476.417C290.863 467.841 321.582 438.893 330.295 430.5C334.83 426.13 340.936 421.339 344.173 415.911C345.188 414.208 345.71 412.687 344.954 410.784C343.036 405.96 336.711 401.284 332.949 397.747C322.72 388.128 288.619 359.449 285.452 346.632C284.038 340.913 284.877 334.957 287.972 329.939C291.394 324.389 296.603 321.654 302.791 320.216Z"/>
    <path fill="#E6522C" d="M173.886 319.979C176.693 320.489 177.975 321.06 180.068 323.023C189.348 331.728 198.526 340.54 207.851 349.198C220.404 360.758 232.841 372.445 245.16 384.255C252.325 390.991 259.598 397.567 266.665 404.412C271.446 409.042 274.148 413.92 268.738 419.548C258.195 430.516 247.026 440.943 236.079 451.512L181.893 504.66C178.293 508.107 172.959 511.06 169.412 505.85C165.09 499.504 180.885 486.325 184.941 482.104C197.913 468.666 210.812 455.159 223.64 441.585C231.14 433.752 240.909 424.871 246.841 415.714C248.469 413.201 248.471 410.932 246.429 408.589C239.071 400.147 230.687 392.409 222.645 384.582C210.329 372.598 198.169 360.455 186.167 348.156C180.721 342.606 174.459 336.721 169.891 330.433C166.187 325.335 169.25 322.468 173.886 319.979Z"/>
    <path fill="#E6522C" d="M230.156 320.039C236.032 321.226 244.226 330.55 248.803 334.9C257.141 342.71 265.365 350.641 273.472 358.691C287.948 372.737 302.57 386.633 317.337 400.374C322.175 404.911 331.672 411.835 325.435 418.817C317.27 427.956 308.045 436.229 299.29 444.855L237.942 504.743C235.536 507.237 232.591 509.886 228.79 508.555C227.262 508.019 226.039 506.852 225.431 505.352C222.452 497.892 238.017 486.177 242.863 480.785C262.595 458.835 284.813 438.621 303.562 415.904C304.093 415.26 304.057 410.208 303.357 409.49C284.657 387.728 262.543 368.476 242.737 347.638C236.991 341.592 215.157 326.59 230.156 320.039Z"/>
    <path fill="#E6522C" d="M118.794 320.632C120.831 320.52 123.52 320.199 125.091 321.71C154.102 349.6 183.86 376.791 212.846 404.713C216.625 408.352 220.924 414.134 216.392 418.683C206.226 428.888 195.631 439.349 185.337 449.378L130.099 503.393C127.866 505.586 125.596 508.175 122.301 508.559C120.582 508.759 118.545 508.416 117.231 507.214C116.16 506.235 115.598 504.918 115.52 503.48C115.389 501.069 116.535 498.7 117.972 496.826C123.513 489.605 131.191 483.165 137.513 476.566C155.095 458.213 173.147 440.068 190.272 421.298C192.889 418.429 195.626 415.847 194.657 411.635C193.229 405.43 141.464 355.694 132.695 346.941C127.629 341.885 121.568 336.847 117.323 331.128C116.289 329.736 115.414 328.203 115.439 326.415C115.475 323.907 117.148 322.277 118.794 320.632Z"/>
  </g>
  <g id="wordmark">
    <path transform="translate(440.000 460) scale(0.06836 -0.06836)" d="M138 -418V1118H392V933H409Q428 972 465.0 1018.5Q502 1065 566.0 1098.5Q630 1132 729 1132Q858 1132 962.5 1066.0Q1067 1000 1128.5 871.5Q1190 743 1190 557Q1190 373 1129.5 244.0Q1069 115 965.0 47.5Q861 -20 728 -20Q632 -20 568.5 12.5Q505 45 467.0 91.0Q429 137 409 177H398V-418ZM658 194Q788 194 855.5 297.5Q923 401 923 558Q923 714 856.5 816.0Q790 918 658 918Q529 918 461.0 819.5Q393 721 393 558Q393 395 462.0 294.5Q531 194 658 194Z" fill="#3F4448"/>
    <path transform="translate(525.363 460) scale(0.06836 -0.06836)" d="M138 0V1118H390V931H402Q432 1028 507.0 1080.5Q582 1133 678 1133Q728 1133 773 1126V887Q757 891 721.0 895.5Q685 900 650 900Q541 900 469.5 832.5Q398 765 398 658V0Z" fill="#3F4448"/>
    <path transform="translate(578.939 460) scale(0.06836 -0.06836)" d="M623 -23Q460 -23 340.0 49.5Q220 122 154.5 251.5Q89 381 89 553Q89 727 154.5 857.5Q220 988 340.0 1060.0Q460 1132 623 1132Q786 1132 906.0 1060.0Q1026 988 1092.0 857.5Q1158 727 1158 553Q1158 381 1092.0 251.5Q1026 122 906.0 49.5Q786 -23 623 -23ZM623 188Q714 188 774.0 237.0Q834 286 864.0 369.0Q894 452 894 554Q894 657 864.0 740.0Q834 823 774.0 872.0Q714 921 623 921Q533 921 473.0 872.0Q413 823 383.5 740.0Q354 657 354 554Q354 452 383.5 369.0Q413 286 473.0 237.0Q533 188 623 188Z" fill="#3F4448"/>
    <path transform="translate(662.184 460) scale(0.06836 -0.06836)" d="M138 0V1118H382L390 905Q434 1024 520.5 1080.0Q607 1136 707 1136Q921 1136 994 893Q1039 1014 1136.0 1075.0Q1233 1136 1351 1136Q1502 1136 1604.0 1038.0Q1706 940 1706 754V0H1445V714Q1445 818 1388.5 866.0Q1332 914 1252 914Q1157 914 1103.0 855.0Q1049 796 1049 702V0H795V726Q795 811 742.0 862.5Q689 914 606 914Q520 914 459.0 855.5Q398 797 398 685V0Z" fill="#3F4448"/>
    <path transform="translate(786.238 460) scale(0.06836 -0.06836)" d="M50 0 420 574 72 1118H358L472 928Q505 871 532.5 816.5Q560 762 586 710Q612 762 639.0 817.0Q666 872 700 928L818 1118H1098L744 568L1115 0H831L693 224Q660 279 632.5 332.5Q605 386 579 437Q554 386 528.0 332.5Q502 279 469 224L331 0Z" fill="#3F4448"/>
    <path transform="translate(863.877 460) scale(0.06836 -0.06836)" d="M127 -399 188 -196 219 -204Q307 -228 366.0 -199.5Q425 -171 445 -75L461 -4L39 1118H317L521 510Q545 437 563.0 364.5Q581 292 597 219Q616 293 635.5 365.5Q655 438 680 510L891 1118H1166L686 -144Q635 -278 544.0 -352.0Q453 -426 301 -426Q246 -426 199.5 -418.0Q153 -410 127 -399Z" fill="#3F4448"/>
  </g>
</svg>
